<?xml version="1.0" encoding="utf-8"?>
<!-- Generator: Adobe Illustrator 23.0.0, SVG Export Plug-In . SVG Version: 6.00 Build 0)  -->
<svg version="1.1" id="Negative" xmlns="http://www.w3.org/2000/svg" xmlns:xlink="http://www.w3.org/1999/xlink" x="0px" y="0px"
	 viewBox="0 0 1000 1000" style="enable-background:new 0 0 1000 1000;" xml:space="preserve">
<style type="text/css">
	.st0{fill:none;stroke:#787878;stroke-width:4;stroke-miterlimit:10;}
	.st1{fill:none;stroke:#FFFFFF;stroke-width:4;stroke-miterlimit:10;}
	.st2{clip-path:url(#SVGID_2_);}
	.st3{clip-path:url(#SVGID_4_);}
</style>
<title>logo_negative</title>
<polygon id="letv" class="st0" points="849.9,250 767.6,250 561.7,638.2 479.4,482.9 397,482.9 521.3,715.8 561.9,793 602.9,715.8 
	"/>
<polygon class="st0" points="150,750 232.4,750 438.2,361.8 520.6,517.1 602.9,517.1 478.6,284.2 438,207 397.1,284.2 "/>
<polygon class="st1" points="100,700 150,638 900,300 850,363 "/>
<g>
	<defs>
		<rect id="SVGID_1_" x="443.5" y="415.5" width="173" height="119"/>
	</defs>
	<clipPath id="SVGID_2_">
		<use xlink:href="#SVGID_1_"  style="overflow:visible;"/>
	</clipPath>
	<g class="st2">
		<polygon class="st0" points="150,750 232.4,750 438.2,361.8 520.6,517.1 602.9,517.1 478.6,284.2 438,207 397.1,284.2 		"/>
	</g>
</g>
<g>
	<defs>
		<rect id="SVGID_3_" x="403.5" y="475.5" width="108" height="110"/>
	</defs>
	<clipPath id="SVGID_4_">
		<use xlink:href="#SVGID_3_"  style="overflow:visible;"/>
	</clipPath>
	<g class="st3">
		<polygon class="st0" points="849.9,250 767.6,250 561.7,638.2 479.4,482.9 397,482.9 521.3,715.8 561.9,793 602.9,715.8 		"/>
	</g>
</g>
</svg>
