<svg id="Negative" xmlns="http://www.w3.org/2000/svg" xmlns:xlink="http://www.w3.org/1999/xlink" viewBox="0 0 1000 1000"><defs><style>.cls-1{fill:none;}.cls-2{fill:#787878;}.cls-3{fill:#fff;}.cls-4{clip-path:url(#clip-path);}.cls-5{clip-path:url(#clip-path-2);}</style><clipPath id="clip-path"><rect class="cls-1" x="443.5" y="415.5" width="173" height="119"/></clipPath><clipPath id="clip-path-2"><rect class="cls-1" x="403.5" y="475.5" width="108" height="110"/></clipPath></defs><title>logo_negative</title><polygon id="letv" class="cls-2" points="849.94 250 767.59 250 561.71 638.2 479.35 482.92 397 482.92 521.35 715.84 561.94 793 602.88 715.84 849.94 250"/><polygon class="cls-2" points="150 750 232.35 750 438.24 361.8 520.59 517.08 602.94 517.08 478.59 284.16 438 207 397.06 284.16 150 750"/><polygon class="cls-3" points="100 700 150 638 900 300 850 363 100 700"/><g class="cls-4"><polygon class="cls-2" points="150 750 232.35 750 438.24 361.8 520.59 517.08 602.94 517.08 478.59 284.16 438 207 397.06 284.16 150 750"/></g><g class="cls-5"><polygon class="cls-2" points="849.94 250 767.59 250 561.71 638.2 479.35 482.92 397 482.92 521.35 715.84 561.94 793 602.88 715.84 849.94 250"/></g></svg>