<?xml version="1.0" encoding="utf-8"?>
<!-- Generator: Adobe Illustrator 23.0.0, SVG Export Plug-In . SVG Version: 6.00 Build 0)  -->
<svg version="1.1" id="Negative" xmlns="http://www.w3.org/2000/svg" xmlns:xlink="http://www.w3.org/1999/xlink" x="0px" y="0px"
	 viewBox="0 0 1000 1000" style="enable-background:new 0 0 1000 1000;" xml:space="preserve">
<style type="text/css">
	.st0{fill:#212121;stroke:#000000;stroke-miterlimit:10;}
	.st1{fill:none;stroke:#787878;stroke-width:4;stroke-miterlimit:10;}
	.st2{fill:none;stroke:#FFFFFF;stroke-width:4;stroke-miterlimit:10;}
	.st3{clip-path:url(#SVGID_2_);fill:none;stroke:#787878;stroke-width:4;stroke-miterlimit:10;}
	.st4{clip-path:url(#SVGID_4_);fill:none;stroke:#787878;stroke-width:4;stroke-miterlimit:10;}
</style>
<rect class="st0" width="1000" height="1000"/>
<title>logo_negative</title>
<polygon id="letv" class="st1" points="849.9,250 767.6,250 561.7,638.2 479.4,482.9 397,482.9 521.3,715.8 561.9,793 602.9,715.8 
	"/>
<polygon class="st1" points="150,750 232.4,750 438.2,361.8 520.6,517.1 602.9,517.1 478.6,284.2 438,207 397.1,284.2 "/>
<polygon class="st2" points="100,700 150,638 900,300 850,363 "/>
<g>
	<defs>
		<polygon id="SVGID_1_" points="413.1,517.2 416.7,515.6 479.5,487.3 483.1,485.7 502.1,521.5 498.5,523.2 435.8,551.3 432.1,553 
					"/>
	</defs>
	<clipPath id="SVGID_2_">
		<use xlink:href="#SVGID_1_"  style="overflow:visible;"/>
	</clipPath>
	<polygon class="st3" points="849.9,250 767.6,250 561.7,638.2 479.4,482.9 397,482.9 521.3,715.8 561.9,793 602.9,715.8 	"/>
</g>
<g>
	<defs>
		<polygon id="SVGID_3_" points="498.1,478.9 501.7,477.3 564.3,449.1 568,447.4 587.2,483.4 583.5,485 520.8,513.2 517.1,514.8 		
			"/>
	</defs>
	<clipPath id="SVGID_4_">
		<use xlink:href="#SVGID_3_"  style="overflow:visible;"/>
	</clipPath>
	<polygon class="st4" points="150,750 232.4,750 438.2,361.8 520.6,517.1 602.9,517.1 478.6,284.2 438,207 397.1,284.2 	"/>
</g>
</svg>
